<svg viewBox="0 0 12 12" fill="none" xmlns="http://www.w3.org/2000/svg">
<path d="M12 3.192C12 4.088 11.688 4.84 11.064 5.448L8.964 7.56C8.34 8.184 7.584 8.496 6.696 8.496C5.92 8.496 5.236 8.244 4.644 7.74L6.024 6.36C6.232 6.496 6.456 6.564 6.696 6.564C7.048 6.564 7.348 6.44 7.596 6.192L9.696 4.08C9.944 3.848 10.068 3.552 10.068 3.192C10.068 2.84 9.946 2.542 9.702 2.298C9.458 2.054 9.16 1.932 8.808 1.932C8.608 1.932 8.41 1.98 8.214 2.076C8.018 2.172 7.888 2.308 7.824 2.484H4.968L6.552 0.936C7.192 0.312 7.944 0 8.808 0C9.688 0 10.44 0.312 11.064 0.936C11.688 1.56 12 2.312 12 3.192ZM7.356 4.26L5.976 5.64C5.768 5.504 5.544 5.436 5.304 5.436C4.952 5.436 4.652 5.56 4.404 5.808L2.304 7.92C2.056 8.152 1.932 8.448 1.932 8.808C1.932 9.16 2.054 9.458 2.298 9.702C2.542 9.946 2.84 10.068 3.192 10.068C3.392 10.068 3.59 10.02 3.786 9.924C3.982 9.828 4.112 9.692 4.176 9.516H7.032L5.448 11.064C4.808 11.688 4.056 12 3.192 12C2.312 12 1.56 11.688 0.936 11.064C0.312 10.44 0 9.688 0 8.808C0 7.912 0.312 7.16 0.936 6.552L3.036 4.44C3.66 3.816 4.416 3.504 5.304 3.504C6.08 3.504 6.764 3.756 7.356 4.26Z" fill="currentColor"/>
</svg>
