<svg viewBox="0 0 14 14" fill="none" xmlns="http://www.w3.org/2000/svg">
<path d="M6.66667 0C3 0 0 3 0 6.66667C0 10.3333 3 13.3333 6.66667 13.3333C10.3333 13.3333 13.3333 10.3333 13.3333 6.66667C13.3333 3 10.3333 0 6.66667 0ZM6.66667 10C6.26667 10 6 9.73333 6 9.33333C6 8.93333 6.26667 8.66667 6.66667 8.66667C7.06667 8.66667 7.33333 8.93333 7.33333 9.33333C7.33333 9.73333 7.06667 10 6.66667 10ZM7.33333 6.66667C7.33333 7.06667 7.06667 7.33333 6.66667 7.33333C6.26667 7.33333 6 7.06667 6 6.66667V4C6 3.6 6.26667 3.33333 6.66667 3.33333C7.06667 3.33333 7.33333 3.6 7.33333 4V6.66667Z" fill="currentColor"/>
</svg>
