<svg viewBox="0 0 12 16" fill="none" xmlns="http://www.w3.org/2000/svg">
<path d="M5.36333 8.36333H3.09133V7.09067H5.36467V8.364L5.36333 8.36333ZM7.63667 0V4H11.6367L7.63667 0ZM8.54533 7.09067H6.272V8.364H8.54533V7.09067ZM8.54533 9.27267H6.272V10.546H8.54533V9.27267ZM11.636 4.33333V14.9093C11.636 15.512 11.148 16 10.5453 16H1.09067C0.947438 16 0.805612 15.9718 0.673287 15.917C0.540961 15.8622 0.420727 15.7818 0.319449 15.6806C0.114909 15.476 0 15.1986 0 14.9093V1.09067C0 0.488 0.488 0 1.09067 0H7.30267V4.33333H11.636ZM9.454 6.182H2.18133V11.4547H9.45467V6.18133L9.454 6.182ZM5.36333 9.27267H3.09133V10.546H5.36467V9.27267H5.36333Z" fill="#00AC47"/>
</svg>
