<svg viewBox="0 0 15 11" fill="none" xmlns="http://www.w3.org/2000/svg">
<path fill-rule="evenodd" clip-rule="evenodd" d="M13.5 0C13.8978 0 14.2794 0.158035 14.5607 0.43934C14.842 0.720644 15 1.10218 15 1.5V9.5C15 9.89782 14.842 10.2794 14.5607 10.5607C14.2794 10.842 13.8978 11 13.5 11H1.5C1.10218 11 0.720644 10.842 0.43934 10.5607C0.158035 10.2794 0 9.89782 0 9.5L0 1.5C0 1.10218 0.158035 0.720644 0.43934 0.43934C0.720644 0.158035 1.10218 0 1.5 0H13.5ZM10 4H8V3H10V4ZM4 5V4H5V5H6V6H5V7H4V6H3V5H4ZM12 8H10V7H12V8Z" fill="currentColor"/>
</svg>
