<svg viewBox="0 0 22 24" fill="none" xmlns="http://www.w3.org/2000/svg">
<path d="M9.11567 0.404715C9.57489 0.139581 10.0958 0 10.6261 0C11.1563 0 11.6773 0.139581 12.1365 0.404715L19.7418 4.79459C20.201 5.05972 20.5823 5.44105 20.8474 5.90026C21.1126 6.35947 21.2522 6.88038 21.2522 7.41063V16.1928C21.2522 16.7231 21.1126 17.244 20.8474 17.7032C20.5823 18.1624 20.201 18.5437 19.7418 18.8088L12.1365 23.1999C11.6773 23.4651 11.1563 23.6046 10.6261 23.6046C10.0958 23.6046 9.57489 23.4651 9.11567 23.1999L1.51042 18.8088C1.0512 18.5437 0.669867 18.1624 0.404734 17.7032C0.139601 17.244 1.36825e-05 16.7231 2.11961e-07 16.1928V7.41184C-0.000198474 6.88138 0.139289 6.36022 0.404432 5.90078C0.669576 5.44134 1.05103 5.05982 1.51042 4.79459L9.11567 0.404715ZM10.6261 8.17792C9.66467 8.17792 8.74264 8.55984 8.06282 9.23966C7.383 9.91948 7.00108 10.8415 7.00108 11.8029C7.00108 12.7643 7.383 13.6864 8.06282 14.3662C8.74264 15.046 9.66467 15.4279 10.6261 15.4279C11.5875 15.4279 12.5095 15.046 13.1893 14.3662C13.8692 13.6864 14.2511 12.7643 14.2511 11.8029C14.2511 10.8415 13.8692 9.91948 13.1893 9.23966C12.5095 8.55984 11.5875 8.17792 10.6261 8.17792Z" fill="currentColor"/>
</svg>
