<svg viewBox="0 0 14 13" fill="none" xmlns="http://www.w3.org/2000/svg">
<path d="M11.6667 5H8.33333V1.66667C8.33333 1.22464 8.15774 0.800716 7.84518 0.488155C7.53262 0.175595 7.10869 0 6.66667 0C6.22464 0 5.80072 0.175595 5.48816 0.488155C5.17559 0.800716 5 1.22464 5 1.66667L5.05917 5H1.66667C1.22464 5 0.800716 5.17559 0.488155 5.48816C0.175595 5.80072 0 6.22464 0 6.66667C0 7.10869 0.175595 7.53262 0.488155 7.84518C0.800716 8.15774 1.22464 8.33333 1.66667 8.33333L5.05917 8.27417L5 11.6667C5 12.1087 5.17559 12.5326 5.48816 12.8452C5.80072 13.1577 6.22464 13.3333 6.66667 13.3333C7.10869 13.3333 7.53262 13.1577 7.84518 12.8452C8.15774 12.5326 8.33333 12.1087 8.33333 11.6667V8.27417L11.6667 8.33333C12.1087 8.33333 12.5326 8.15774 12.8452 7.84518C13.1577 7.53262 13.3333 7.10869 13.3333 6.66667C13.3333 6.22464 13.1577 5.80072 12.8452 5.48816C12.5326 5.17559 12.1087 5 11.6667 5Z" fill="currentColor"/>
</svg>
