<svg viewBox="0 0 170 212" fill="none" xmlns="http://www.w3.org/2000/svg">
<path d="M54.2552 6.42191C46.2552 -0.326429 32.1018 -0.969151 20.7553 0.921876C11.4216 2.47745 1.20325 9.42726 0.0983455 14C-0.139925 14.9861 0.0456149 15.8617 0.75523 16.5487C4.75547 20.4219 17.7552 25.6695 23.3204 32.308C26.2223 35.7697 25.9133 38.7169 26.2555 42.4219C26.338 44.68 25.7555 48.4219 20.7555 51.4219C18.8915 52.5403 16.4613 53.6988 14 54.9611C8.57567 57.7429 3 61.0288 3 65.5C3 72 11.837 175 15 180C18.2877 183.868 21.4395 187.051 24.6857 189.5C29.8324 193.383 35.2164 195.422 41.7554 195.422C50 195.422 62.7555 211.049 84.7554 211.049C106.755 211.049 119.755 195.422 128 195.422C134.539 195.422 139.923 193.383 145.07 189.5C148.316 187.051 151.468 183.868 154.755 180C157.918 175 166.755 72 166.755 65.5C166.755 61.0288 161.18 57.7429 155.755 54.9611C153.294 53.6988 150.864 52.5403 149 51.4219C144 48.4219 143.418 44.68 143.5 42.4219C143.842 38.7169 143.533 35.7697 146.435 32.308C152 25.6695 165 20.4219 169 16.5487C169.71 15.8617 169.895 14.9861 169.657 14C168.552 9.42726 158.334 2.47745 149 0.921876C137.654 -0.969151 123.5 -0.326429 115.5 6.42191C110.22 10.8762 106.234 13.4293 102.755 14.8751C96.683 17.3994 91.9145 16.5487 84.7554 16.5487C77.5963 16.5487 73.0725 17.3994 67 14.8751C63.5219 13.4293 59.5357 10.8762 54.2552 6.42191Z" fill="currentColor"/>
</svg>
