<svg viewBox="0 0 249 226" fill="none" xmlns="http://www.w3.org/2000/svg">
<path fill-rule="evenodd" clip-rule="evenodd" d="M57.493 176.208C60.72 178.281 65.3583 180.178 69.5095 181.133L69.5203 181.087C73.4999 182.001 83.7906 181.71 88.1437 180.568C89.8446 180.119 92.9755 178.886 95.1016 177.826L98.9671 175.895L99.0916 120.82L99.2161 65.7463H104.625H110.035V117.537V169.325L112.029 171.132C115.872 174.619 123.113 176.385 132.087 176.073C136.984 175.907 138 175.699 141.073 174.245C146.719 171.587 150.992 166.955 153.275 161.02C154.004 159.122 154.13 153.092 154.365 109.087L154.628 59.301L155.834 55.691C157.007 52.1724 160.06 46.502 161.141 45.8373C161.438 45.6524 163.37 47.1833 165.437 49.2396L169.193 52.9742L167.575 56.3952L165.956 59.8182V109.862V159.905L167.6 163.26C169.732 167.611 174.086 171.961 178.515 174.162C181.553 175.679 182.514 175.865 187.128 176.073C189.984 176.198 193.594 176.032 195.15 175.699C201.843 174.308 207.617 170.104 210.956 164.192C214.725 157.516 214.731 157.479 220.568 107.863C223.607 82.0286 226.001 59.6541 226.001 57.0848C226.001 49.4099 223.997 40.1149 221.086 34.2907C219.083 30.284 215.171 25.5586 211.627 22.8646C207.66 19.8487 199.154 15.6094 195.077 14.6124C191.286 13.6777 176.568 13.8023 171.234 14.8201L167.233 15.5678L163.76 12.4875C159.258 8.49116 155.195 5.73901 150.594 3.56429C144.318 0.602357 141.155 0 132.457 0C125.473 0.0207709 124.327 0.166167 120.603 1.41242C113.912 3.65776 108.1 7.64993 103.766 12.9777L102.43 14.6186L97.831 13.1439C82.7554 8.29176 67.4446 10.6472 55.9563 19.5891C54.3772 20.8187 51.7003 23.2427 50.0091 24.9667L46.933 28.1072H40.133C28.7924 28.1072 22.7054 29.8458 15.8365 35.0489C9.60388 39.7722 3.77731 48.9986 1.16303 58.2895L0.00103643 62.4167L0 106.268C0 141.161 0.141098 150.753 0.693045 153.217C3.10003 163.949 8.88282 171.472 17.2031 174.694C22.6143 176.788 35.8052 176.586 41.4612 174.32L43.3993 173.552L43.779 125.209C43.9885 98.6225 44.2292 76.7112 44.3122 76.7112C44.3965 76.6281 46.8112 76.7112 49.6778 76.9189L54.8901 77.272V125.899V174.526L57.493 176.208Z" fill="currentColor"/>
<path d="M126.72 225.5C122.702 224.586 121.062 223.713 118.727 221.248C115.427 217.771 114.931 216.321 114.958 210.241C114.979 204.029 116.11 200.064 120.153 191.888L122.469 187.204H130.298C137.45 187.223 138.482 186.997 142.249 185.833C148.439 183.756 154.768 179.363 158.198 174.756L159.715 172.721L163.867 176.946C168.29 181.449 172.293 184.008 178.069 186.025C182.69 187.645 193.377 187.665 199.27 186.025C212.773 182.375 222.286 171.707 225.706 156.378C226.1 154.613 228.116 138.717 230.183 121.063C232.25 103.41 234.004 89.0284 234.08 89.1052C234.56 89.583 240.315 111.498 242.222 120.106C251.374 161.421 251.259 189.547 241.871 205.971C238.03 212.69 230.525 218.057 222.65 219.711C217.557 220.791 214.744 220.666 210.334 219.233C198.853 215.482 185.464 216.105 161.061 221.524C142.008 225.757 132.753 226.808 126.719 225.429L126.72 225.5Z" fill="currentColor"/>
</svg>
