<svg viewBox="0 0 210 197" fill="none" xmlns="http://www.w3.org/2000/svg">
<path d="M7.77778 126.737C9.53674e-07 123.077 2.86445e-10 126.737 0 93.3371C0 85.1015 1.90735e-06 85.1255 18.5556 85.1255C21.1484 85.1015 21.1752 85.1015 24.7025 85.1015H24.7059C24.7059 44.8384 25.1634 32.9425 40.2614 18.7589C59.0196 1.1369 70.915 0 83.7255 0H126.274C128.73 0 133.595 0.23339 133.595 0.23339C143.897 1.04148 154.576 4.5146 169.739 18.7589C184.837 32.9425 185.294 44.8384 185.294 85.1015C210 85.1015 210 85.1015 210 93.3371C210 126.737 210 123.077 202.222 126.737C197.19 149.614 195.36 147.326 190.784 147.326H180.719C176.144 167 151.438 204.06 137.712 195.825C136.214 194.926 135.004 193.972 134.052 192.972C126.285 184.814 135.659 173.579 145.033 163.797C151.967 156.562 157.59 141.887 159.673 131.77C160.098 129.705 160.439 127.553 160.709 125.364C150.523 119.874 129.02 113.926 105.229 113.926C81.4379 113.926 59.4771 119.874 49.2915 125.364C49.5615 127.553 49.9017 129.705 50.3268 131.77C52.4096 141.887 58.0334 156.562 64.9673 163.797C75.4902 174.778 86.0131 187.589 72.2876 195.825C58.5621 204.06 33.8562 167 29.281 147.326H23.5H19.2157C14.6405 147.326 12.8105 149.614 7.77778 126.737Z" fill="currentColor"/>
</svg>
