<svg viewBox="0 0 15 11" fill="none" xmlns="http://www.w3.org/2000/svg">
<path d="M14.8807 2.88C10.7283 -0.960703 4.27006 -0.959297 0.119277 2.88C-0.0368168 3.02437 -0.0398637 3.26883 0.111074 3.41859L0.913574 4.21477C1.05748 4.35773 1.28904 4.36078 1.43857 4.22367C4.85857 1.09055 10.1409 1.08984 13.5616 4.22367C13.7112 4.36078 13.9427 4.3575 14.0866 4.21477L14.8891 3.41859C15.0398 3.26883 15.0368 3.02437 14.8807 2.88ZM7.49998 7.5C6.67146 7.5 5.99998 8.17148 5.99998 9C5.99998 9.82852 6.67146 10.5 7.49998 10.5C8.3285 10.5 8.99998 9.82852 8.99998 9C8.99998 8.17148 8.3285 7.5 7.49998 7.5ZM12.2501 5.54086C9.54865 3.15188 5.44826 3.15445 2.7499 5.54086C2.58818 5.68383 2.58303 5.93203 2.73654 6.08344L3.54373 6.88008C3.68435 7.01883 3.91076 7.0282 4.06053 6.89883C6.0281 5.19797 8.97631 5.20172 10.9392 6.89883C11.089 7.0282 11.3154 7.01906 11.456 6.88008L12.2632 6.08344C12.4169 5.93203 12.4115 5.68359 12.2501 5.54086Z" fill="currentColor"/>
</svg>
