<svg viewBox="0 0 533 533" fill="none" xmlns="http://www.w3.org/2000/svg">
<path fill-rule="evenodd" clip-rule="evenodd" d="M106.6 0H426.4C454.672 0 481.786 11.231 501.778 31.2224C521.769 51.2138 533 78.3279 533 106.6V426.4C533 454.672 521.769 481.786 501.778 501.778C481.786 521.769 454.672 533 426.4 533H106.6C78.3279 533 51.2138 521.769 31.2224 501.778C11.231 481.786 0 454.672 0 426.4V106.6C0 78.3279 11.231 51.2138 31.2224 31.2224C51.2138 11.231 78.3279 0 106.6 0ZM379.576 191.134L304.183 266.5L379.576 341.866C384.577 346.867 387.386 353.649 387.386 360.721C387.386 367.793 384.577 374.575 379.576 379.576C374.575 384.577 367.793 387.386 360.721 387.386C353.649 387.386 346.867 384.577 341.866 379.576L266.5 304.183L191.134 379.576C186.133 384.577 179.351 387.386 172.279 387.386C165.207 387.386 158.425 384.577 153.424 379.576C148.423 374.575 145.614 367.793 145.614 360.721C145.614 353.649 148.423 346.867 153.424 341.866L228.817 266.5L153.424 191.134C148.423 186.133 145.614 179.351 145.614 172.279C145.614 165.207 148.423 158.425 153.424 153.424C158.425 148.423 165.207 145.614 172.279 145.614C179.351 145.614 186.133 148.423 191.134 153.424L266.5 228.817L341.866 153.424C346.867 148.423 353.649 145.614 360.721 145.614C367.793 145.614 374.575 148.423 379.576 153.424C384.577 158.425 387.386 165.207 387.386 172.279C387.386 179.351 384.577 186.133 379.576 191.134Z" fill="currentColor"/>
</svg>
