<svg viewBox="0 0 23 23" fill="none" xmlns="http://www.w3.org/2000/svg">
<path d="M5.05165 19.1839L2.07645 22.1591C1.84917 22.3864 1.55992 22.5 1.20868 22.5C0.857438 22.5 0.568182 22.3864 0.340909 22.1591C0.113636 21.9318 0 21.6426 0 21.2913C0 20.9401 0.113636 20.6508 0.340909 20.4236L3.31612 17.4483H1.33264C0.981405 17.4483 0.686777 17.3297 0.44876 17.0926C0.210744 16.8554 0.0921488 16.5607 0.0929753 16.2087C0.0929753 15.8574 0.211984 15.5628 0.45 15.3248C0.688017 15.0868 0.982231 14.9682 1.33264 14.969H6.29132C6.64256 14.969 6.93719 15.088 7.17521 15.326C7.41322 15.564 7.53182 15.8583 7.53099 16.2087V21.1674C7.53099 21.5186 7.41198 21.8132 7.17397 22.0512C6.93595 22.2893 6.64173 22.4078 6.29132 22.407C5.94008 22.407 5.64545 22.288 5.40744 22.05C5.16942 21.812 5.05083 21.5178 5.05165 21.1674V19.1839ZM17.4483 19.1839V21.1674C17.4483 21.5186 17.3293 21.8132 17.0913 22.0512C16.8533 22.2893 16.5591 22.4078 16.2087 22.407C15.8574 22.407 15.5628 22.288 15.3248 22.05C15.0868 21.812 14.9682 21.5178 14.969 21.1674V16.2087C14.969 15.8574 15.088 15.5628 15.326 15.3248C15.564 15.0868 15.8583 14.9682 16.2087 14.969H21.1674C21.5186 14.969 21.8132 15.088 22.0512 15.326C22.2893 15.564 22.4078 15.8583 22.407 16.2087C22.407 16.5599 22.288 16.8545 22.05 17.0926C21.812 17.3306 21.5178 17.4492 21.1674 17.4483H19.1839L22.1591 20.4236C22.3864 20.6508 22.5 20.9401 22.5 21.2913C22.5 21.6426 22.3864 21.9318 22.1591 22.1591C21.9318 22.3864 21.6426 22.5 21.2913 22.5C20.9401 22.5 20.6508 22.3864 20.4236 22.1591L17.4483 19.1839ZM3.31612 5.05165L0.340909 2.07645C0.113636 1.84917 0 1.55992 0 1.20868C0 0.857438 0.113636 0.568182 0.340909 0.340909C0.568182 0.113636 0.857438 0 1.20868 0C1.55992 0 1.84917 0.113636 2.07645 0.340909L5.05165 3.31612V1.33264C5.05165 0.981405 5.17066 0.686777 5.40868 0.44876C5.64669 0.210744 5.94091 0.0921488 6.29132 0.0929753C6.64256 0.0929753 6.93719 0.211984 7.17521 0.45C7.41322 0.688017 7.53182 0.982231 7.53099 1.33264V6.29132C7.53099 6.64256 7.41198 6.93719 7.17397 7.17521C6.93595 7.41322 6.64173 7.53182 6.29132 7.53099H1.33264C0.981405 7.53099 0.686777 7.41198 0.44876 7.17397C0.210744 6.93595 0.0921488 6.64173 0.0929753 6.29132C0.0929753 5.94008 0.211984 5.64545 0.45 5.40744C0.688017 5.16942 0.982231 5.05083 1.33264 5.05165H3.31612ZM19.1839 5.05165H21.1674C21.5186 5.05165 21.8132 5.17066 22.0512 5.40868C22.2893 5.64669 22.4078 5.94091 22.407 6.29132C22.407 6.64256 22.288 6.93719 22.05 7.17521C21.812 7.41322 21.5178 7.53182 21.1674 7.53099H16.2087C15.8574 7.53099 15.5628 7.41198 15.3248 7.17397C15.0868 6.93595 14.9682 6.64173 14.969 6.29132V1.33264C14.969 0.981405 15.088 0.686777 15.326 0.44876C15.564 0.210744 15.8583 0.0921488 16.2087 0.0929753C16.5599 0.0929753 16.8545 0.211984 17.0926 0.45C17.3306 0.688017 17.4492 0.982231 17.4483 1.33264V3.31612L20.4236 0.340909C20.6508 0.113636 20.9401 0 21.2913 0C21.6426 0 21.9318 0.113636 22.1591 0.340909C22.3864 0.568182 22.5 0.857438 22.5 1.20868C22.5 1.55992 22.3864 1.84917 22.1591 2.07645L19.1839 5.05165Z" fill="currentColor"/>
</svg>
