<svg viewBox="0 0 18 18" fill="none" xmlns="http://www.w3.org/2000/svg">
<path d="M3.35803 15.8025H4.93827C5.21811 15.8025 5.45284 15.8973 5.64247 16.0869C5.8321 16.2765 5.92658 16.5109 5.92592 16.7901C5.92592 17.0699 5.83111 17.3047 5.64148 17.4943C5.45185 17.6839 5.21745 17.7784 4.93827 17.7778H0.987657C0.707822 17.7778 0.473089 17.683 0.28346 17.4933C0.0938304 17.3037 -0.000655018 17.0693 3.41749e-06 16.7901V12.8395C3.41749e-06 12.5597 0.0948182 12.3249 0.284448 12.1353C0.474077 11.9457 0.70848 11.8512 0.987657 11.8518C1.26749 11.8518 1.50222 11.9467 1.69185 12.1363C1.88148 12.3259 1.97597 12.5603 1.97531 12.8395V14.4197L4.34568 12.0494C4.52675 11.8683 4.7572 11.7778 5.03704 11.7778C5.31687 11.7778 5.54732 11.8683 5.72839 12.0494C5.90946 12.2304 6 12.4609 6 12.7407C6 13.0206 5.90946 13.251 5.72839 13.4321L3.35803 15.8025ZM14.4197 15.8025L12.0494 13.4321C11.8683 13.251 11.7778 13.0206 11.7778 12.7407C11.7778 12.4609 11.8683 12.2304 12.0494 12.0494C12.2304 11.8683 12.4609 11.7778 12.7407 11.7778C13.0206 11.7778 13.251 11.8683 13.4321 12.0494L15.8025 14.4197V12.8395C15.8025 12.5597 15.8973 12.3249 16.0869 12.1353C16.2765 11.9457 16.5109 11.8512 16.7901 11.8518C17.0699 11.8518 17.3047 11.9467 17.4943 12.1363C17.6839 12.3259 17.7784 12.5603 17.7778 12.8395V16.7901C17.7778 17.0699 17.683 17.3047 17.4933 17.4943C17.3037 17.6839 17.0693 17.7784 16.7901 17.7778H12.8395C12.5597 17.7778 12.3249 17.683 12.1353 17.4933C11.9457 17.3037 11.8512 17.0693 11.8518 16.7901C11.8518 16.5103 11.9467 16.2755 12.1363 16.0859C12.3259 15.8963 12.5603 15.8018 12.8395 15.8025H14.4197ZM1.97531 3.35803V4.93827C1.97531 5.21811 1.8805 5.45284 1.69087 5.64247C1.50124 5.8321 1.26683 5.92658 0.987657 5.92592C0.707822 5.92592 0.473089 5.83111 0.28346 5.64148C0.0938304 5.45185 -0.000655018 5.21745 3.41749e-06 4.93827V0.987657C3.41749e-06 0.707822 0.0948182 0.473089 0.284448 0.28346C0.474077 0.0938304 0.70848 -0.000655018 0.987657 3.41749e-06H4.93827C5.21811 3.41749e-06 5.45284 0.0948182 5.64247 0.284448C5.8321 0.474077 5.92658 0.70848 5.92592 0.987657C5.92592 1.26749 5.83111 1.50222 5.64148 1.69185C5.45185 1.88148 5.21745 1.97597 4.93827 1.97531H3.35803L5.72839 4.34568C5.90946 4.52675 6 4.7572 6 5.03704C6 5.31687 5.90946 5.54732 5.72839 5.72839C5.54732 5.90946 5.31687 6 5.03704 6C4.7572 6 4.52675 5.90946 4.34568 5.72839L1.97531 3.35803ZM15.8025 3.35803L13.4321 5.72839C13.251 5.90946 13.0206 6 12.7407 6C12.4609 6 12.2304 5.90946 12.0494 5.72839C11.8683 5.54732 11.7778 5.31687 11.7778 5.03704C11.7778 4.7572 11.8683 4.52675 12.0494 4.34568L14.4197 1.97531H12.8395C12.5597 1.97531 12.3249 1.88082 12.1353 1.69185C11.9457 1.50288 11.8512 1.26815 11.8518 0.987657C11.8518 0.707822 11.9467 0.473089 12.1363 0.28346C12.3259 0.0938304 12.5603 -0.000655018 12.8395 3.41749e-06H16.7901C17.0699 3.41749e-06 17.3047 0.0948182 17.4943 0.284448C17.6839 0.474077 17.7784 0.70848 17.7778 0.987657V4.93827C17.7778 5.21811 17.683 5.45284 17.4933 5.64247C17.3037 5.8321 17.0693 5.92658 16.7901 5.92592C16.5103 5.92592 16.2755 5.83111 16.0859 5.64148C15.8963 5.45185 15.8018 5.21745 15.8025 4.93827V3.35803Z" fill="currentColor"/>
</svg>
